<svg class="icon" viewBox="0 0 1024 1024" xmlns="http://www.w3.org/2000/svg" width="128" height="128"><path d="M899.2 108.8H124.8c-35.2 0-60.8 25.6-60.8 57.6v534.4c0 32 25.6 60.8 60.8 60.8h281.6l-25.6 131.2H320v22.4h384v-22.4h-60.8l-25.6-131.2h281.6c32 0 60.8-25.6 60.8-60.8V169.6c0-35.2-25.6-60.8-60.8-60.8zm-489.6 784l25.6-131.2h153.6l25.6 131.2H409.6zm528-185.6c0 16-12.8 32-32 32H115.2c-16 0-28.8-12.8-32-32V640h851.2v67.2h3.2zm0-89.6H86.4V160c0-16 12.8-32 32-32h790.4c16 0 32 12.8 32 32v457.6h-3.2zM528 672h-32v32h32v-32zM108.8 169.6h806.4V160H108.8v9.6z"/><path d="M438.4 284.8h38.4v160c0 22.4-6.4 38.4-19.2 51.2s-32 19.2-54.4 19.2-41.6-6.4-54.4-19.2c-12.8-12.8-19.2-28.8-19.2-51.2H368c0 12.8 3.2 22.4 9.6 28.8 6.4 6.4 16 9.6 25.6 9.6 9.6 0 19.2-3.2 25.6-9.6 6.4-6.4 9.6-16 9.6-28.8v-160zm256 153.6c-3.2 25.6-12.8 41.6-25.6 57.6-16 12.8-35.2 19.2-60.8 19.2-19.2 0-35.2-3.2-48-12.8-12.8-9.6-25.6-22.4-32-35.2s-12.8-35.2-12.8-54.4v-22.4c0-22.4 3.2-41.6 12.8-57.6s19.2-28.8 32-38.4c12.8-9.6 32-12.8 48-12.8 25.6 0 44.8 6.4 60.8 19.2 16 12.8 25.6 32 25.6 57.6H656c-3.2-16-6.4-28.8-12.8-35.2-9.6-3.2-19.2-9.6-35.2-9.6-16 0-28.8 6.4-38.4 19.2-9.6 12.8-12.8 32-12.8 54.4v19.2c0 25.6 3.2 44.8 12.8 57.6 9.6 12.8 22.4 19.2 38.4 19.2s25.6-3.2 35.2-9.6 12.8-19.2 16-35.2h35.2z"/></svg>